# xmcd
# 
# Track frame offsets:
#     150
#     20576
#     38554
#     54253
#     71907
#     87860
#     106952
#     137031
#     154989
#     174153
#     190705
#     213442
# 
# Disc length: 3031
# 
# Revision: 5
# Processed by: cddbd v1.5.2PL0 Copyright (c) Steve Scherf et al.
# Submitted via: fre:ac v1.1beta1pre3
# 
DISCID=9b0bd50c
DTITLE=Мельница - Зов крови
DYEAR=2006
DGENRE=Folk-Rock
TTITLE0=Невеста полоза
TTITLE1=Зов крови
TTITLE2=Двери тамерлана
TTITLE3=Травушка
TTITLE4=Сестра
TTITLE5=Полнлуние
TTITLE6=Сказка о дьяволе
TTITLE7=Дракон
TTITLE8=Ай, волна
TTITLE9=Ворожи
TTITLE10=Огонь
TTITLE11=Лента в волосах
EXTD=YEAR: 2006
EXTT0=
EXTT1=
EXTT2=
EXTT3=
EXTT4=
EXTT5=
EXTT6=
EXTT7=
EXTT8=
EXTT9=
EXTT10=
EXTT11=
PLAYORDER=
